<svg xmlns="http://www.w3.org/2000/svg" viewBox="0 0 160 160"><path d="M147.3 152.7c-15-7.7-37.1-16.5-37.1-16.5s-13.1-5-12.3-17.5c0-.2.1-.4.3-.5 7.1-5.8 12-14.8 13.2-25.2 0-.1 0-.2.1-.2.1-.1.1-.3.2-.4 0 0 0-.1.1-.1 2.9.5 6.3-3.9 8.1-10C121.6 76 121.4 71 118 71h-.2c-.5 0-.8-.4-.8-.8.8-7.4.8-13.2.8-13.2 0-20.9-17-37.9-37.9-37.9C59 19 42 36 42 56.9c0 0 0 5.8.8 13.2 0 .5-.3.8-.8.8-3.4 0-3.6 5-1.8 11.3 1.7 5.9 5 10.2 7.9 10v.1c.1.1.1.3.2.4 0 .1.1.2.1.3 1.2 10.5 6.2 19.6 13.4 25.4.2.1.3.3.3.5.6 12.3-12.4 17.2-12.4 17.2s-22 8.9-37.1 16.5C-.7 159.4-.3 174.8 0 178.3c0 .4.4.7.7.7H159c.4 0 .7-.3.7-.7.5-3.4 1-18.8-12.4-25.6z" fill="#666"/></svg>